<?xml version="1.0" encoding="utf-8"?>
<!-- Svg Vector Icons : http://www.onlinewebfonts.com/icon -->
<!DOCTYPE svg PUBLIC "-//W3C//DTD SVG 1.1//EN" "http://www.w3.org/Graphics/SVG/1.1/DTD/svg11.dtd">
<svg version="1.1" xmlns="http://www.w3.org/2000/svg" xmlns:xlink="http://www.w3.org/1999/xlink" x="0px" y="0px" viewBox="0 0 1000 1000" enable-background="new 0 0 1000 1000" xml:space="preserve">
<metadata> Svg Vector Icons : http://www.onlinewebfonts.com/icon </metadata>
<g><g transform="translate(0.000000,432.000000) scale(0.100000,-0.100000)"><path d="M1837.2,3406.9c-139.8-55.5-235.5-141.7-300.6-273.8l-59.4-116.8v-371.5v-369.6h191.5h191.5v315.9c0,369.6,13.4,417.4,130.2,448.1c40.2,11.5,279.6,21.1,559.1,21.1c279.6,0,518.9-9.6,559.1-21.1c116.8-30.6,130.2-78.5,130.2-448.1v-315.9h191.5h191.5v369.6v371.5l-59.4,116.8c-65.1,134-162.8,220.2-304.5,273.8c-88.1,32.5-153.2,36.4-714.2,36.4C1990.4,3441.4,1917.6,3437.5,1837.2,3406.9z"/><path d="M6739.1,3406.9c-139.8-55.5-235.5-141.7-300.6-273.8l-59.3-116.8v-371.5v-369.6h191.5h191.5v315.9c0,369.6,13.4,417.4,130.2,448.1c40.2,11.5,279.6,21.1,559.1,21.1c279.6,0,518.9-9.6,559.1-21.1c116.8-30.6,130.2-78.5,130.2-448.1v-315.9h191.5h191.5v369.6v371.5l-59.4,116.8c-65.1,134-162.8,220.2-304.5,273.8c-88.1,32.5-153.2,36.4-714.2,36.4C6892.3,3441.4,6819.5,3437.5,6739.1,3406.9z"/><path d="M902.8,2070.4c-107.2-15.3-225.9-53.6-314-97.6c-122.5-61.3-304.4-233.6-373.4-356.2c-124.5-218.3-118.7-36.4-113-3019.6l5.7-2707.5L179-4260c120.6-252.8,340.8-434.6,618.5-513.2c143.6-40.2,8262.4-40.2,8406,0c277.6,78.5,497.8,260.4,618.5,513.2l70.8,149.4l5.7,2707.5c3.8,2435.6,1.9,2720.9-26.8,2814.7c-82.4,291.1-308.3,520.8-618.5,630c-80.4,28.7-434.6,32.5-4195.3,34.5C2798.4,2078,929.6,2076.1,902.8,2070.4z M9159.4,1631.9c116.8-38.3,225.9-134,283.4-248.9l47.9-93.8l5.7-2617.5c3.8-2600.3,3.8-2617.5-34.5-2722.9c-51.7-134-162.8-247-298.7-298.7c-105.3-38.3-122.6-38.3-4162.8-38.3c-4026.8,0-4059.4,0-4160.9,38.3c-124.5,47.9-233.6,147.4-289.1,266.2l-40.2,88.1v2642.4v2642.4l47.9,93.8c26.8,51.7,80.4,122.5,122.5,157c149.4,128.3-181.9,118.7,4312.1,120.6C8634.8,1662.5,9080.9,1658.7,9159.4,1631.9z"/><path d="M7164.2-673.5v-383h-392.5h-392.5v-296.8v-296.8h392.5h392.5v-392.5v-392.5h287.2h287.2v392.5v392.5h392.5h392.5v296.8v296.8h-392.5h-392.5v383v383h-287.2h-287.2V-673.5z"/><path d="M1477.2-1353.3v-296.8h1072.3h1072.3v296.8v296.8H2549.5H1477.2V-1353.3z"/></g></g>
</svg>