<?xml version="1.0" standalone="no"?>
<!DOCTYPE svg PUBLIC "-//W3C//DTD SVG 20010904//EN"
 "http://www.w3.org/TR/2001/REC-SVG-20010904/DTD/svg10.dtd">
<svg version="1.0" xmlns="http://www.w3.org/2000/svg"
 width="100.000000pt" height="100.000000pt" viewBox="0 0 100.000000 100.000000"
 preserveAspectRatio="xMidYMid meet">

<g transform="translate(0.000000,100.000000) scale(0.100000,-0.100000)"
fill="#000000" stroke="none">
<path d="M406 890 c-63 -16 -153 -70 -197 -117 -22 -24 -55 -74 -72 -111 -29
-61 -32 -76 -32 -163 0 -90 2 -99 37 -171 45 -91 103 -147 196 -191 61 -29 76
-32 162 -32 86 0 101 3 162 32 93 44 151 100 196 191 35 72 37 81 37 172 0 91
-2 100 -37 172 -68 136 -188 217 -336 224 -42 2 -94 -1 -116 -6z m240 -64 c77
-35 145 -103 181 -180 24 -52 28 -74 28 -146 0 -72 -4 -94 -28 -146 -36 -77
-104 -145 -182 -181 -51 -24 -73 -28 -145 -28 -72 0 -94 4 -145 28 -78 36
-146 104 -182 181 -24 52 -28 74 -28 146 0 72 4 94 28 145 86 183 293 263 473
181z"/>
<path d="M465 728 c-3 -8 -4 -75 -3 -149 l3 -134 35 0 35 0 0 145 0 145 -33 3
c-20 2 -34 -2 -37 -10z"/>
<path d="M464 346 c-3 -8 -4 -25 -2 -38 2 -19 9 -23 38 -23 33 0 35 2 35 35 0
32 -3 35 -33 38 -21 2 -34 -2 -38 -12z"/>
<path d="M110 813 c-100 -121 -136 -315 -85 -468 21 -63 75 -155 92 -155 24 0
23 20 -2 58 -108 163 -95 392 31 543 19 22 31 45 28 50 -11 18 -33 8 -64 -28z"/>
<path d="M825 841 c-3 -6 7 -25 23 -43 128 -147 147 -363 46 -531 -33 -57 -36
-77 -11 -77 17 0 71 92 92 155 23 71 30 173 16 247 -27 135 -135 298 -166 249z"/>
</g>
</svg>
