<?xml version="1.0" standalone="no"?>
<!DOCTYPE svg PUBLIC "-//W3C//DTD SVG 20010904//EN"
 "http://www.w3.org/TR/2001/REC-SVG-20010904/DTD/svg10.dtd">
<svg version="1.0" xmlns="http://www.w3.org/2000/svg"
 width="64.000000pt" height="64.000000pt" viewBox="0 0 64.000000 64.000000"
 preserveAspectRatio="xMidYMid meet">

<g transform="translate(0.000000,64.000000) scale(0.100000,-0.100000)"
fill="#000000" stroke="none">
<path d="M174 525 c-10 -24 15 -45 52 -45 24 0 34 -5 34 -15 0 -10 -10 -15
-34 -15 -22 0 -40 -7 -48 -18 -7 -9 -26 -22 -43 -27 -24 -8 -31 -17 -33 -43
-2 -24 -8 -32 -23 -32 -15 0 -19 7 -19 36 0 33 -2 35 -27 32 l-28 -3 -3 -101
c-2 -81 0 -104 13 -114 23 -19 43 -5 47 32 5 49 32 44 38 -7 5 -37 7 -40 40
-43 22 -2 46 -14 66 -33 l31 -30 134 3 134 3 3 33 c4 37 12 40 30 12 15 -24
64 -27 86 -4 24 24 22 155 -2 177 -26 23 -69 22 -84 -3 -19 -29 -26 -25 -30
18 -3 34 -6 37 -35 40 -27 3 -33 8 -33 26 0 30 -18 46 -52 46 -18 0 -28 5 -28
15 0 10 10 15 34 15 38 0 60 19 50 44 -9 23 -261 24 -270 1z m251 -15 c-4 -6
-53 -10 -115 -10 -62 0 -111 4 -115 10 -4 6 37 10 115 10 78 0 119 -4 115 -10z
m-85 -45 c0 -10 -10 -15 -30 -15 -20 0 -30 5 -30 15 0 10 10 15 30 15 20 0 30
-5 30 -15z m79 -65 c4 -29 17 -40 49 -40 22 0 22 -2 22 -120 l0 -120 -123 0
-123 0 -29 30 c-21 22 -38 30 -62 30 l-33 0 0 99 0 99 29 5 c17 4 35 16 41 27
10 19 19 20 118 18 106 -3 107 -3 111 -28z m-379 -116 c0 -61 -4 -93 -10 -89
-13 8 -13 185 0 185 6 0 10 -39 10 -96z m569 22 c7 -9 11 -39 9 -77 -3 -65
-19 -88 -52 -76 -13 5 -16 21 -16 80 0 41 3 77 7 80 11 12 40 8 52 -7z m-509
-16 c0 -13 -7 -20 -20 -20 -13 0 -20 7 -20 20 0 13 7 20 20 20 13 0 20 -7 20
-20z m430 -55 c0 -25 -4 -45 -10 -45 -5 0 -10 20 -10 45 0 25 5 45 10 45 6 0
10 -20 10 -45z"/>
</g>
</svg>
