<?xml version="1.0" standalone="no"?>
<!DOCTYPE svg PUBLIC "-//W3C//DTD SVG 20010904//EN"
 "http://www.w3.org/TR/2001/REC-SVG-20010904/DTD/svg10.dtd">
<svg version="1.0" xmlns="http://www.w3.org/2000/svg"
 width="100.000000pt" height="100.000000pt" viewBox="0 0 100.000000 100.000000"
 preserveAspectRatio="xMidYMid meet">

<g transform="translate(0.000000,100.000000) scale(0.100000,-0.100000)"
fill="#000000" stroke="none">
<path d="M58 869 c-21 -12 -24 -42 -5 -57 6 -6 26 -14 42 -18 37 -9 102 -40
110 -54 3 -5 -5 -26 -19 -47 -75 -114 -91 -319 -35 -467 23 -62 76 -116 115
-116 163 0 222 391 89 592 l-25 38 25 16 c40 26 97 43 145 43 48 0 105 -17
145 -43 l25 -16 -25 -38 c-62 -95 -89 -245 -66 -378 30 -179 127 -261 215
-183 89 78 117 323 56 480 -12 29 -30 65 -41 81 -11 15 -17 32 -14 38 8 14 73
45 110 54 16 4 36 12 42 18 20 16 15 46 -7 58 -27 14 -111 -9 -164 -45 -45
-31 -47 -31 -92 0 -111 76 -279 68 -397 -17 -14 -10 -20 -10 -35 0 -29 21
-115 60 -147 66 -16 3 -38 1 -47 -5z m274 -313 c34 -112 16 -284 -37 -343
l-25 -28 -20 24 c-30 36 -51 119 -51 212 -1 96 12 156 48 218 l25 43 19 -28
c11 -16 29 -60 41 -98z m439 48 c27 -59 37 -149 27 -240 -9 -84 -43 -169 -67
-169 -23 0 -52 49 -67 111 -27 117 -13 244 39 337 20 36 22 37 35 20 8 -10 23
-37 33 -59z"/>
</g>
</svg>
