<?xml version="1.0" standalone="no"?>
<!DOCTYPE svg PUBLIC "-//W3C//DTD SVG 20010904//EN"
 "http://www.w3.org/TR/2001/REC-SVG-20010904/DTD/svg10.dtd">
<svg version="1.0" xmlns="http://www.w3.org/2000/svg"
 width="128.000000pt" height="128.000000pt" viewBox="0 0 128.000000 128.000000"
 preserveAspectRatio="xMidYMid meet">

<g transform="translate(0.000000,128.000000) scale(0.100000,-0.100000)"
fill="#000000" stroke="none">
<path d="M10 955 c-21 -25 -4 -45 37 -45 35 0 46 -8 123 -85 l85 -85 -91 0
c-57 0 -96 -5 -107 -12 -12 -10 -22 -51 -37 -153 -11 -76 -18 -145 -16 -152 4
-9 27 -13 72 -13 65 0 67 -1 103 -40 50 -55 110 -71 175 -46 28 11 57 32 72
52 l26 34 202 0 c200 0 203 0 215 -23 15 -29 67 -63 108 -72 49 -10 106 11
149 55 34 35 44 39 94 42 l55 3 3 150 c2 132 1 151 -15 162 -11 8 -51 13 -113
13 l-96 0 -33 90 c-18 49 -39 94 -46 100 -8 7 -101 9 -276 8 l-264 -3 -54 -88
-54 -88 -107 105 c-104 103 -108 106 -152 106 -28 0 -50 -6 -58 -15z m962
-174 c21 -52 44 -98 50 -103 7 -4 55 -8 106 -8 l92 0 0 -100 0 -100 -50 0
c-46 0 -52 -3 -72 -35 -52 -78 -134 -78 -186 0 l-22 35 -240 0 -240 0 -25 -40
c-45 -71 -126 -70 -174 3 -23 36 -26 37 -83 37 -32 0 -58 3 -58 6 0 10 21 149
26 172 4 21 8 22 123 22 90 0 123 4 134 14 7 8 38 55 68 105 l54 91 230 -2
230 -3 37 -94z"/>
</g>
</svg>
