<?xml version="1.0" standalone="no"?>
<!DOCTYPE svg PUBLIC "-//W3C//DTD SVG 20010904//EN"
 "http://www.w3.org/TR/2001/REC-SVG-20010904/DTD/svg10.dtd">
<svg version="1.0" xmlns="http://www.w3.org/2000/svg"
 width="96.000000pt" height="96.000000pt" viewBox="0 0 96.000000 96.000000"
 preserveAspectRatio="xMidYMid meet">

<g transform="translate(0.000000,96.000000) scale(0.100000,-0.100000)"
fill="#000000" stroke="none">
<path d="M452 868 c-8 -8 -12 -67 -12 -200 l0 -188 -37 -34 c-34 -31 -38 -39
-38 -85 0 -44 4 -55 33 -83 47 -48 117 -48 164 0 29 28 33 39 33 83 0 46 -4
54 -37 85 -32 28 -38 41 -38 74 0 36 2 39 31 42 64 6 64 70 0 76 -29 3 -31 6
-31 42 0 36 2 39 31 42 64 6 64 70 0 76 -26 3 -31 7 -31 31 0 30 -16 51 -40
51 -9 0 -21 -5 -28 -12z"/>
<path d="M120 319 c0 -49 34 -74 100 -74 66 0 100 25 100 74 l0 39 -37 -19
c-21 -10 -49 -19 -63 -19 -14 0 -42 9 -63 19 l-37 19 0 -39z"/>
<path d="M640 319 c0 -49 34 -74 100 -74 66 0 100 25 100 74 l0 39 -37 -19
c-21 -10 -49 -19 -63 -19 -14 0 -42 9 -63 19 l-37 19 0 -39z"/>
<path d="M80 159 c0 -30 5 -42 25 -55 39 -26 95 -28 138 -6 36 20 38 20 74 1
47 -24 79 -24 126 0 36 18 38 18 74 0 47 -24 79 -24 126 0 36 19 38 19 75 -1
42 -22 98 -20 137 6 20 13 25 25 25 55 l0 39 -37 -19 c-47 -24 -79 -24 -126 0
-36 18 -38 18 -74 0 -21 -10 -49 -19 -63 -19 -14 0 -42 9 -63 19 -36 18 -38
18 -74 0 -47 -24 -79 -24 -126 0 -36 18 -38 18 -74 0 -47 -24 -79 -24 -126 0
l-37 19 0 -39z"/>
</g>
</svg>
